<?xml version="1.0" encoding="UTF-8"?>
<svg width="53px" height="55px" viewBox="0 0 53 55" version="1.1" xmlns="http://www.w3.org/2000/svg" xmlns:xlink="http://www.w3.org/1999/xlink">
    <!-- Generator: Sketch 47.1 (45422) - http://www.bohemiancoding.com/sketch -->
    <title>Group 8</title>
    <desc>Created with Sketch.</desc>
    <defs>
        <rect id="path-1" x="0" y="0" width="53" height="55"></rect>
    </defs>
    <g id="Page-1" stroke="none" stroke-width="1" fill="none" fill-rule="evenodd" opacity="0.318331069">
        <g id="Desktop-HD-Copy-9" transform="translate(-1196.000000, -481.000000)">
            <g id="Path-2-Copy-+-Path-2-Copy-2-+-Path-2-Mask" transform="translate(611.000000, 112.000000)">
                <g id="Group-5" transform="translate(585.000000, 369.000000)">
                    <g id="Group-8">
                        <mask id="mask-2" fill="white">
                            <use xlink:href="#path-1"></use>
                        </mask>
                        <use id="Mask" fill="#FFFFFF" xlink:href="#path-1"></use>
                        <g mask="url(#mask-2)" fill-rule="nonzero" fill="#FF3A3A">
                            <g transform="translate(3.000000, 7.000000)">
                                <path d="M40.0146831,30.6540844 C34.6299482,36.5947611 29.2995556,36.8230225 23.0320448,31.3483795 C15.237646,24.5400065 7.48742211,24.2000169 0.598146265,30.5108064 C-0.176249663,31.220177 -0.202109268,32.3949999 0.540387219,33.1348468 C1.28288371,33.8746936 2.51256797,33.8993995 3.2869639,33.1900289 C8.62361165,28.3014947 14.0591979,28.539945 20.4104958,34.0877756 C28.2588048,40.9432389 36.0862914,40.6216224 42.9075958,33.1323784 C48.2239687,28.3034599 53.6416992,28.5618442 59.9679263,34.0877756 C67.8400301,40.9640235 75.691185,40.6196062 82.5270418,33.0640623 C83.2286195,32.2886216 83.1393868,31.1166355 82.3277349,30.4463581 C81.516083,29.7760807 80.289368,29.8613324 79.5877903,30.6367731 C74.1977234,36.5943127 68.8630682,36.8283353 62.5894753,31.3483795 C54.8021839,24.5462148 47.0589869,24.2006423 40.1744251,30.4935593 C40.146208,30.5187824 40.1186196,30.5449475 40.0917071,30.572051 C40.0646417,30.599249 40.0391725,30.6264006 40.0146831,30.6540844 Z" id="Combined-Shape"></path>
                                <path d="M40.0146831,17.6540844 C34.6299482,23.5947611 29.2995556,23.8230225 23.0320448,18.3483795 C15.237646,11.5400065 7.48742211,11.2000169 0.598146265,17.5108064 C-0.176249663,18.220177 -0.202109268,19.3949999 0.540387219,20.1348468 C1.28288371,20.8746936 2.51256797,20.8993995 3.2869639,20.1900289 C8.62361165,15.3014947 14.0591979,15.539945 20.4104958,21.0877756 C28.2588048,27.9432389 36.0862914,27.6216224 42.9075958,20.1323784 C48.2239687,15.3034599 53.6416992,15.5618442 59.9679263,21.0877756 C67.8400301,27.9640235 75.691185,27.6196062 82.5270418,20.0640623 C83.2286195,19.2886216 83.1393868,18.1166355 82.3277349,17.4463581 C81.516083,16.7760807 80.289368,16.8613324 79.5877903,17.6367731 C74.1977234,23.5943127 68.8630682,23.8283353 62.5894753,18.3483795 C54.8021839,11.5462148 47.0589869,11.2006423 40.1744251,17.4935593 C40.146208,17.5187824 40.1186196,17.5449475 40.0917071,17.572051 C40.0646417,17.599249 40.0391725,17.6264006 40.0146831,17.6540844 Z" id="Combined-Shape-Copy"></path>
                                <path d="M40.0146831,4.65408436 C34.6299482,10.5947611 29.2995556,10.8230225 23.0320448,5.34837953 C15.237646,-1.45999348 7.48742211,-1.79998312 0.598146265,4.51080643 C-0.176249663,5.22017703 -0.202109268,6.39499991 0.540387219,7.13484678 C1.28288371,7.87469365 2.51256797,7.89939955 3.2869639,7.19002895 C8.62361165,2.30149471 14.0591979,2.53994499 20.4104958,8.08777563 C28.2588048,14.9432389 36.0862914,14.6216224 42.9075958,7.13237841 C48.2239687,2.30345993 53.6416992,2.5618442 59.9679263,8.08777563 C67.8400301,14.9640235 75.691185,14.6196062 82.5270418,7.06406228 C83.2286195,6.2886216 83.1393868,5.11663554 82.3277349,4.44635814 C81.516083,3.77608074 80.289368,3.86133242 79.5877903,4.63677309 C74.1977234,10.5943127 68.8630682,10.8283353 62.5894753,5.34837953 C54.8021839,-1.45378516 47.0589869,-1.7993577 40.1744251,4.49355926 C40.146208,4.51878245 40.1186196,4.54494745 40.0917071,4.57205101 C40.0646417,4.59924896 40.0391725,4.62640061 40.0146831,4.65408436 Z" id="Combined-Shape-Copy-2"></path>
                            </g>
                        </g>
                    </g>
                </g>
            </g>
        </g>
    </g>
</svg>